<?xml version="1.0" encoding="utf-8"?>
<svg version="1.1" id="Warstwa_1" shape-rendering="geometricPrecision" xmlns="http://www.w3.org/2000/svg"
	xmlns:xlink="http://www.w3.org/1999/xlink" x="0px" y="0px" viewBox="0 0 22.5 28"
	style="enable-background:new 0 0 22.5 28;" xml:space="preserve">
	<style type="text/css">
		.st0 {
			fill-rule: evenodd;
			clip-rule: evenodd;
			fill: #1E3A5F;
		}
	</style>
	<path class="st0" d="M19.7,16.4c0.8-0.1,2.8,0.3,2.8-1.7c0-0.9-0.1-2.7-0.3-3.6c-0.5-2.9-1.1-4.4-2.6-6.8c-1.3-1.9-3.1-3-5.1-3.8
	C11.6-0.5,7.8,0,5.2,1.3c-1.6,1-3,2.1-3.9,3.8C0.2,7.2-0.2,9,0.1,11.6C0.2,12.9,0.9,15,1.8,16c0.9,1.1,1.5,1.6,2.7,2.3
	c1.1,0.6,2.5,0.8,3.8,0.7c1-0.1,1.4-0.2,1.9-0.2c-0.2,0.7-1.1,2-1.5,2.7c-0.7,1.2-0.5,3.3,0.2,4.3c0.3,0.5,0.5,0.8,0.9,1.2
	c1,1,0.9,0.9,1.6-0.1c0.8-1.1,1.7-2.6,2.5-3.8c0.5-0.7,0.5-0.6,1.5-0.6c3.1,0,4.3,0.4,4.3-2C19.7,19.8,19.6,17,19.7,16.4L19.7,16.4z
	 M7.1,4.9c0.3-0.2,0.6-0.4,1-0.5C9.1,4,10.4,3.9,11.6,4c0.8,0.1,1.7,0.4,2.4,0.8c0.5,0.3,1,0.8,1.3,1.3c0.4,0.7,0.4,1.6-0.1,2.3
	l-0.4,0.5l-0.9,0.8c-0.3,0.3-0.8,0.6-0.8,0.9c0,0.4,0.9,0.4,1.3,0.3c0.3-0.1,0.4-0.2,0.5-0.3c0.6-0.5,2.5-2.1,2.9-3
	c0.5-1.5,0.1-2.7-0.8-3.8c-0.7-0.9-1.6-1.3-2.6-1.8c-1.2-0.6-3.1-0.7-4.3-0.7c-0.8,0-1.6,0.1-2.4,0.4C5,2.5,2.3,4.7,3.4,7.7
	C3.6,8.3,4.2,9,4.7,9.4c0.5,0.4,1,0.9,1.6,1.3c0.3,0.2,0.9,0.7,1.3,0.9c0.6,0.4,2,1.3,2.7,1.6l1,0.6c0.4,0.3,0.8,0.5,1.2,0.8
	c0.2,0.1,0.4,0.3,0.6,0.5c0.3,0.4,0,0.6-0.3,0.8c-0.3,0.1-0.9,0.3-1.3,0.3c-0.5,0-1.1,0-1.6,0c-0.5-0.1-1.3-0.3-1.5-0.6
	c-0.1-0.3,0.2-0.5,0.4-0.7c0.1-0.1,0.4-0.2,0.3-0.3c-0.2-0.3-1-0.2-1.3,0.1c-0.1,0.1-0.4,0.4-0.5,0.5C7,15.1,7,15.2,7,15.3
	c0,0.3,0.2,0.4,0.4,0.6c0.4,0.3,1.1,0.4,1.6,0.5c0.9,0.1,1.8,0.1,2.6,0.1c0.5,0,1-0.1,1.5-0.3c0.4-0.1,1-0.4,1.1-0.7
	c0.3-0.5-1.7-1.9-2.2-2.3L11,12.5c-0.5-0.3-1.6-1-2-1.4c-0.9-0.7-1.9-1.4-2.6-2.2C5.2,7.4,5.6,5.9,7.1,4.9L7.1,4.9z M9.2,13.5
	c-0.2,0-0.4,0-0.5,0C8,13.6,8.3,14.2,9.4,14C10,13.9,9.6,13.5,9.2,13.5L9.2,13.5z M13.1,12.1c0.5-0.2,0.4-0.9-0.9-0.6
	c-0.1,0-0.3,0.1-0.4,0.1C11.2,12.2,12.5,12.4,13.1,12.1z" />
</svg>