<?xml version="1.0" encoding="UTF-8"?>
<!DOCTYPE svg PUBLIC "-//W3C//DTD SVG 1.1//EN" "http://www.w3.org/Graphics/SVG/1.1/DTD/svg11.dtd">
<!-- Creator: CorelDRAW -->
<svg xmlns="http://www.w3.org/2000/svg" xml:space="preserve" width="7.5012mm" height="7.6428mm" version="1.1" style="shape-rendering:geometricPrecision; text-rendering:geometricPrecision; image-rendering:optimizeQuality; fill-rule:evenodd; clip-rule:evenodd"
viewBox="0 0 593 604"
 xmlns:xlink="http://www.w3.org/1999/xlink"
 xmlns:xodm="http://www.corel.com/coreldraw/odm/2003">
 <defs>
  <style type="text/css">
   <![CDATA[
    .fil0 {fill:#006BFF;fill-rule:nonzero}
   ]]>
  </style>
 </defs>
 <g id="Warstwa_x0020_1">
  <metadata id="CorelCorpID_0Corel-Layer"/>
  <path class="fil0" d="M406 392c-19,17 -43,38 -87,38l-26 0c-31,0 -60,-11 -81,-32 -20,-20 -31,-48 -31,-78l0 -36c0,-30 11,-58 31,-78 21,-21 49,-32 81,-32l26 0c44,0 67,21 87,38 20,18 37,33 83,33 7,0 14,-1 21,-2 0,0 0,0 0,0 -3,-7 -6,-13 -10,-20l-31 -53c-28,-49 -80,-79 -136,-79l-61 0c-56,0 -108,30 -136,79l-31 53c-28,49 -28,109 0,157l31 53c28,49 80,79 136,79l61 0c56,0 108,-30 136,-79l31 -53c4,-6 7,-13 10,-20 0,0 0,0 0,0 -7,-1 -14,-2 -21,-2 -46,0 -63,15 -83,33z"/>
  <path class="fil0" d="M320 206l-26 0c-48,0 -79,34 -79,78l0 35c0,44 31,78 79,78l26 0c70,0 64,-71 170,-71 10,0 20,1 30,3 3,-18 3,-37 0,-55 -10,2 -20,3 -30,3 -105,0 -100,-71 -170,-71z"/>
  <path class="fil0" d="M580 355c-18,-13 -39,-22 -61,-26 0,0 0,0 0,1 -2,10 -5,21 -9,31 18,3 35,10 50,21 0,0 0,0 0,1 -8,27 -21,53 -38,76 -16,23 -36,43 -59,60 -47,35 -103,54 -162,54 -37,0 -72,-7 -105,-21 -32,-14 -61,-33 -86,-58 -25,-25 -44,-54 -58,-86 -14,-33 -21,-69 -21,-105 0,-37 7,-72 21,-105 14,-32 33,-61 58,-86 25,-25 54,-44 86,-58 33,-14 69,-21 105,-21 59,0 115,19 162,54 23,17 42,37 59,60 17,23 29,49 38,76 0,0 0,0 0,1 -15,11 -32,18 -50,21 4,10 7,20 9,31 0,0 0,0 0,1 22,-4 42,-13 61,-26 17,-13 14,-27 11,-36 -38,-123 -153,-213 -289,-213 -167,0 -302,135 -302,302 0,167 135,302 302,302 136,0 251,-90 289,-213 3,-9 6,-23 -11,-36z"/>
 </g>
</svg>
