<svg xmlns="http://www.w3.org/2000/svg" xml:space="preserve" width="30mm" height="9.8704mm" version="1.1"
  shape-rendering="geometricPrecision" fill-rule="evenodd" viewBox="0 0 5143 1692"
  xmlns:xlink="http://www.w3.org/1999/xlink">

  <path fill="#1E3A5F"
    d="M1190 994c51,-9 169,20 169,-101 0,-55 -7,-165 -18,-220 -32,-173 -65,-267 -160,-409 -76,-113 -185,-182 -308,-228 -170,-65 -399,-37 -559,41 -97,62 -182,125 -237,232 -65,128 -87,235 -72,390 8,82 48,206 101,270 57,69 90,94 164,137 65,34 149,48 227,42 59,-6 82,-11 117,-14 -13,42 -66,122 -90,165 -40,73 -28,201 11,260 19,29 30,47 53,74 60,60 53,55 99,-4 49,-64 103,-160 149,-229 31,-44 29,-34 93,-34 185,-1 262,26 262,-118 0,-52 -3,-217 1,-253zm629 682l-234 0 0 -695 565 0 0 177 -331 0 0 119 290 0 0 177 -290 0 0 222zm765 16c-56,0 -108,-9 -156,-27 -48,-18 -90,-43 -125,-76 -35,-33 -62,-71 -82,-116 -20,-44 -29,-93 -29,-145 0,-53 10,-101 30,-145 20,-44 47,-82 82,-115 35,-33 76,-59 124,-76 48,-18 100,-27 156,-27 57,0 109,9 157,27 48,18 89,43 124,76 35,33 62,72 82,115 20,44 30,92 30,145 0,52 -10,101 -29,145 -20,44 -47,83 -82,116 -35,33 -76,58 -124,76 -48,18 -100,27 -157,27zm-1 -190c23,0 43,-4 62,-12 19,-8 35,-19 50,-34 14,-15 25,-33 33,-55 8,-22 12,-46 12,-73 0,-27 -4,-51 -12,-73 -8,-22 -19,-40 -33,-55 -14,-15 -31,-26 -49,-34 -19,-8 -39,-12 -62,-12 -22,0 -42,4 -61,12 -19,8 -35,19 -50,34 -14,15 -25,33 -33,55 -8,22 -12,46 -12,73 0,27 4,51 12,73 8,22 19,40 33,55 14,15 31,26 49,34 19,8 39,12 61,12zm479 174l0 -695 335 0c65,0 121,11 168,32 47,21 84,51 110,91 26,39 39,86 39,140 0,54 -13,100 -39,139 -23,34 -53,61 -92,81l146 214 -250 0 -118 -175 -64 0 0 175 -234 0zm234 -352l85 0c32,0 56,-7 72,-22 16,-15 23,-34 23,-60 0,-25 -8,-45 -23,-60 -16,-15 -40,-22 -72,-22l-85 0 0 163zm866 368c-56,0 -108,-9 -155,-26 -47,-18 -88,-43 -123,-75 -35,-32 -62,-71 -81,-115 -19,-44 -29,-93 -29,-147 0,-54 10,-103 29,-147 19,-44 46,-83 81,-115 35,-32 77,-57 125,-75 48,-18 101,-26 158,-26 69,0 130,12 184,35 54,23 98,56 134,99l-150 132c-22,-25 -46,-44 -71,-57 -25,-13 -54,-19 -85,-19 -26,0 -49,4 -70,12 -21,8 -39,20 -53,35 -15,15 -26,33 -34,55 -8,21 -12,45 -12,73 0,26 4,49 12,71 8,22 19,40 34,55 15,15 32,27 52,35 20,8 43,12 68,12 29,0 58,-6 85,-16l0 -176 204 0 0 294c-42,28 -91,50 -145,66 -54,15 -107,23 -158,23zm634 -193l348 0 0 177 -578 0 0 -695 565 0 0 177 -335 0 0 81 294 0 0 169 -294 0 0 91zm-3220 -801l0 -695 293 0c74,0 140,15 196,44 57,29 101,70 132,122 31,52 47,113 47,182 0,69 -16,129 -47,182 -31,52 -76,93 -132,122 -57,29 -122,44 -196,44l-293 0zm99 -86l188 0c58,0 107,-11 150,-33 42,-22 75,-52 98,-92 23,-39 35,-85 35,-137 0,-52 -12,-98 -35,-137 -23,-39 -56,-70 -98,-91 -42,-22 -92,-33 -150,-33l-188 0 0 522zm1099 -308l349 -1 -1 83 -348 1 0 226 406 -1 0 86 -505 0 1 -695 490 0 0 85 -391 1 0 215zm944 309l406 -1 0 86 -505 0 1 -695 490 0 0 85 -391 1 0 215 349 -1 -1 83 -348 1 0 226zm846 85l0 -695 271 0c61,0 113,10 156,29 43,19 76,47 99,83 23,36 35,80 35,130 0,50 -12,94 -35,130 -23,36 -56,64 -99,83 -43,20 -95,29 -156,29l-172 0 0 211 -99 0zm99 -297l169 0c64,0 112,-14 145,-41 33,-27 49,-66 49,-115 0,-50 -16,-88 -49,-115 -33,-27 -81,-41 -145,-41l-169 0 0 312zm-4235 -103c20,-13 38,-23 60,-31 65,-24 143,-33 212,-23 48,7 103,23 143,50 31,21 60,46 78,80 23,45 22,97 -7,137l-24 30 -52 50c-18,16 -50,37 -48,54 3,25 52,26 77,20 16,-4 23,-10 33,-18 38,-29 154,-128 174,-183 32,-89 7,-164 -49,-232 -43,-52 -98,-80 -158,-108 -74,-34 -186,-43 -262,-41 -49,3 -94,9 -143,23 -162,47 -320,179 -259,358 13,39 52,79 82,107 28,26 62,53 94,76 18,15 56,40 76,53 37,25 119,76 161,98l61 37c24,16 47,31 71,48 12,9 24,19 34,30 21,24 3,36 -21,47 -21,9 -55,16 -79,17 -31,2 -64,3 -95,-1 -33,-4 -79,-16 -92,-37 -4,-20 13,-32 27,-44 8,-7 23,-12 16,-21 -14,-19 -63,-14 -81,4 -6,6 -26,25 -29,32 -3,5 -4,8 -4,14 -2,17 10,26 25,35 27,17 65,26 97,32 52,9 106,9 160,5 29,-2 63,-9 89,-17 22,-7 58,-22 69,-44 16,-33 -100,-113 -136,-137l-65 -41c-32,-20 -94,-63 -123,-86 -52,-41 -112,-86 -155,-136 -73,-85 -49,-176 44,-236zm130 516c-10,-1 -22,-2 -33,0 -41,7 -24,42 44,31 35,-6 12,-28 -11,-30zm232 -80c28,-11 22,-52 -55,-36 -7,1 -17,5 -22,9 -35,28 42,41 77,27z" />
</svg>